<svg xmlns="http://www.w3.org/2000/svg" width="23.926" height="23.925" viewBox="0 0 23.926 23.925"><g transform="translate(0.001 -0.003)"><path d="M211.653,5.29a6.529,6.529,0,0,0-11.033-3.373l-3.1,3.1a1.6,1.6,0,0,0,2.261,2.261l3.1-3.1A3.336,3.336,0,1,1,207.6,8.9l-3.1,3.1a1.6,1.6,0,0,0,2.261,2.261l3.1-3.1a6.526,6.526,0,0,0,1.794-5.865Z" transform="translate(-187.847 0)" fill="#2c190e"/><path d="M11.987,204.526l-3.1,3.1a3.333,3.333,0,0,1-3,.916,3.32,3.32,0,0,1-1.72-.916,3.333,3.333,0,0,1-.733-1.1,3.329,3.329,0,0,1,.733-3.616l3.1-3.1a1.6,1.6,0,0,0-2.261-2.26l-3.1,3.1a6.533,6.533,0,1,0,9.239,9.239l3.1-3.1a1.6,1.6,0,0,0-2.261-2.26Z" transform="translate(0 -187.867)" fill="#2c190e"/><path d="M168.078,160.027a1.6,1.6,0,0,0-2.261,0L160,165.844a1.6,1.6,0,0,0,2.261,2.26l5.818-5.818A1.6,1.6,0,0,0,168.078,160.027Z" transform="translate(-152.077 -152.1)" fill="#2c190e"/></g></svg>