<svg xmlns="http://www.w3.org/2000/svg" width="18.662" height="18.662" viewBox="0 0 18.662 18.662"><path d="M12.322,3a9.331,9.331,0,1,0,9.34,9.331A9.326,9.326,0,0,0,12.322,3Zm6.466,5.6H16.035a14.6,14.6,0,0,0-1.288-3.322A7.492,7.492,0,0,1,18.788,8.6ZM12.331,4.9a13.144,13.144,0,0,1,1.782,3.7H10.549A13.144,13.144,0,0,1,12.331,4.9ZM5.109,14.2a7.3,7.3,0,0,1,0-3.732H8.263a15.411,15.411,0,0,0-.131,1.866A15.411,15.411,0,0,0,8.263,14.2Zm.765,1.866H8.627a14.6,14.6,0,0,0,1.288,3.322A7.453,7.453,0,0,1,5.874,16.063ZM8.627,8.6H5.874a7.453,7.453,0,0,1,4.04-3.322A14.6,14.6,0,0,0,8.627,8.6Zm3.7,11.16a13.144,13.144,0,0,1-1.782-3.7h3.564A13.144,13.144,0,0,1,12.331,19.759ZM14.515,14.2H10.148A13.729,13.729,0,0,1,10,12.331a13.609,13.609,0,0,1,.149-1.866h4.367a13.609,13.609,0,0,1,.149,1.866A13.729,13.729,0,0,1,14.515,14.2Zm.233,5.188a14.6,14.6,0,0,0,1.288-3.322h2.753A7.493,7.493,0,0,1,14.748,19.385ZM16.4,14.2a15.411,15.411,0,0,0,.131-1.866,15.411,15.411,0,0,0-.131-1.866h3.154a7.3,7.3,0,0,1,0,3.732Z" transform="translate(-3 -3)" fill="#fff"/></svg>