<svg xmlns="http://www.w3.org/2000/svg" width="42.046" height="40.87" viewBox="0 0 42.046 40.87"><g transform="translate(-273 -38)"><path d="M31.657,40.87H9.214A9.214,9.214,0,0,1,0,31.657V9.214A9.214,9.214,0,0,1,9.214,0H31.657a9.214,9.214,0,0,1,9.214,9.214V31.657a9.214,9.214,0,0,1-9.214,9.214" transform="translate(274.176 38)" fill="#06c755"/><path d="M80.532,69.4c0-6.1-6.113-11.058-13.626-11.058S53.279,63.307,53.279,69.4c0,5.466,4.848,10.044,11.4,10.91.444.1,1.048.293,1.2.672a2.8,2.8,0,0,1,.044,1.232s-.16.961-.195,1.166c-.059.344-.274,1.347,1.18.735s7.847-4.621,10.706-7.911h0a9.839,9.839,0,0,0,2.921-6.8" transform="translate(227.703 -13.348)" fill="#fff"/><path d="M203.24,128.323h-3.828a.26.26,0,0,1-.26-.26v0h0v-5.936h0v-.006a.26.26,0,0,1,.26-.26h3.828a.261.261,0,0,1,.26.26v.966a.26.26,0,0,1-.26.26h-2.6v1h2.6a.261.261,0,0,1,.26.26v.966a.26.26,0,0,1-.26.26h-2.6v1h2.6a.261.261,0,0,1,.26.26v.966a.26.26,0,0,1-.26.26" transform="translate(100.461 -68.855)" fill="#06c755"/><path d="M92.366,128.323a.26.26,0,0,0,.26-.26V127.1a.261.261,0,0,0-.26-.26h-2.6v-4.72a.261.261,0,0,0-.26-.26h-.966a.26.26,0,0,0-.26.26v5.942h0v0a.26.26,0,0,0,.26.26h3.828Z" transform="translate(197.174 -68.855)" fill="#06c755"/><path d="M129.956,121.855h-.966a.26.26,0,0,0-.26.26v5.947a.26.26,0,0,0,.26.26h.966a.26.26,0,0,0,.26-.26v-5.947a.26.26,0,0,0-.26-.26" transform="translate(161.889 -68.855)" fill="#06c755"/><path d="M153.035,121.855h-.966a.26.26,0,0,0-.26.26v3.532l-2.721-3.674a.289.289,0,0,0-.021-.027l0,0-.016-.016,0,0-.014-.012-.007-.005-.014-.009-.008,0-.014-.008-.008,0-.015-.007-.009,0-.016,0-.009,0-.015,0-.011,0-.014,0h-.984a.26.26,0,0,0-.26.26v5.947a.26.26,0,0,0,.26.26h.966a.26.26,0,0,0,.26-.26v-3.531l2.724,3.679a.263.263,0,0,0,.067.066l0,0,.016.01.008,0,.013.006.013.005.008,0,.018.006h0a.265.265,0,0,0,.068.009h.961a.26.26,0,0,0,.26-.26v-5.947a.26.26,0,0,0-.26-.26" transform="translate(145.389 -68.855)" fill="#06c755"/><g transform="translate(-4754.928 -1613.754)"><path d="M30.964,39.976H9.012A9.012,9.012,0,0,1,0,30.964V9.012A9.012,9.012,0,0,1,9.012,0H30.964a9.012,9.012,0,0,1,9.012,9.012V30.964a9.012,9.012,0,0,1-9.012,9.012" transform="translate(5027.952 1651.902)" fill="#06c755"/><path d="M79.935,69.162c0-5.964-5.979-10.816-13.328-10.816S53.279,63.2,53.279,69.162c0,5.347,4.742,9.824,11.147,10.671.434.094,1.025.286,1.174.657a2.737,2.737,0,0,1,.043,1.205s-.156.94-.19,1.141c-.058.337-.268,1.318,1.154.719s7.676-4.52,10.472-7.738h0a9.624,9.624,0,0,0,2.857-6.655" transform="translate(4981.328 1600.845)" fill="#fff"/><path d="M203.151,128.182h-3.745a.254.254,0,0,1-.254-.254v0h0v-5.806h0v-.006a.254.254,0,0,1,.254-.254h3.745a.255.255,0,0,1,.254.254v.945a.254.254,0,0,1-.254.254h-2.545v.982h2.545a.255.255,0,0,1,.254.254v.945a.255.255,0,0,1-.254.255h-2.545v.982h2.545a.255.255,0,0,1,.254.254v.945a.254.254,0,0,1-.254.254" transform="translate(4853.679 1545.269)" fill="#06c755"/><path d="M92.277,128.182a.254.254,0,0,0,.254-.254v-.945a.255.255,0,0,0-.254-.254H89.732V122.11a.255.255,0,0,0-.254-.254h-.945a.254.254,0,0,0-.254.254v5.812h0v0a.254.254,0,0,0,.254.254h3.745Z" transform="translate(4950.702 1545.269)" fill="#06c755"/><path d="M129.93,121.855h-.945a.254.254,0,0,0-.254.254v5.817a.254.254,0,0,0,.254.254h.945a.254.254,0,0,0,.254-.254v-5.817a.254.254,0,0,0-.254-.254" transform="translate(4915.304 1545.27)" fill="#06c755"/><path d="M152.917,121.855h-.945a.254.254,0,0,0-.254.254v3.455l-2.661-3.594a.288.288,0,0,0-.02-.026l0,0-.015-.016,0,0L149,121.91l-.007-.005-.013-.009-.008,0-.014-.008-.008,0-.015-.007-.008,0-.015,0-.009,0-.015,0-.011,0-.014,0H147.9a.254.254,0,0,0-.254.254v5.817a.254.254,0,0,0,.254.254h.945a.254.254,0,0,0,.254-.254v-3.454l2.665,3.6a.258.258,0,0,0,.066.064l0,0,.016.01.007,0,.012.006.012.005.008,0,.018.006h0a.259.259,0,0,0,.066.009h.94a.254.254,0,0,0,.254-.254v-5.817a.254.254,0,0,0-.254-.254" transform="translate(4898.751 1545.27)" fill="#06c755"/><rect width="39.646" height="39.646" transform="translate(5027.928 1652.07)" fill="none"/></g></g></svg>